<mxfile host="65bd71144e">
    <diagram name="Page-1" id="K9TuiEtutWEmW538E32U">
        <mxGraphModel dx="456" dy="232" grid="1" gridSize="10" guides="0" tooltips="1" connect="1" arrows="1" fold="1" page="1" pageScale="1" pageWidth="850" pageHeight="1100" math="1" shadow="0">
            <root>
                <mxCell id="0"/>
                <mxCell id="1" parent="0"/>
                <mxCell id="M1pZBGetKFNLrOsSdhf2-181" value="" style="rounded=0;whiteSpace=wrap;html=1;" parent="1" vertex="1">
                    <mxGeometry x="200" y="550" width="180" height="90" as="geometry"/>
                </mxCell>
                <mxCell id="M1pZBGetKFNLrOsSdhf2-111" value="" style="rounded=0;whiteSpace=wrap;html=1;gradientColor=none;glass=0;" parent="1" vertex="1">
                    <mxGeometry x="250" y="360" width="170" height="80" as="geometry"/>
                </mxCell>
                <mxCell id="M1pZBGetKFNLrOsSdhf2-77" value="" style="rounded=0;whiteSpace=wrap;html=1;gradientColor=none;glass=0;" parent="1" vertex="1">
                    <mxGeometry x="150" y="170" width="110" height="40" as="geometry"/>
                </mxCell>
                <mxCell id="M1pZBGetKFNLrOsSdhf2-57" value="" style="rounded=0;whiteSpace=wrap;html=1;" parent="1" vertex="1">
                    <mxGeometry x="140" y="70" width="101" height="70" as="geometry"/>
                </mxCell>
                <mxCell id="M1pZBGetKFNLrOsSdhf2-59" value="$$\frac{2}{r}-\frac{1}{a}$$" style="rounded=0;whiteSpace=wrap;html=1;strokeWidth=0.25;strokeColor=#CCCCCC;shadow=0;glass=0;perimeterSpacing=0;fillColor=default;gradientColor=#FAFAFA;gradientDirection=radial;" parent="1" vertex="1">
                    <mxGeometry x="189" y="80" width="44" height="40" as="geometry"/>
                </mxCell>
                <mxCell id="M1pZBGetKFNLrOsSdhf2-58" value="$$\frac{v^2}{\mu}$$" style="rounded=0;whiteSpace=wrap;html=1;strokeWidth=0.25;strokeColor=#CCCCCC;shadow=0;glass=0;perimeterSpacing=0;fillColor=#FAFAFA;gradientColor=none;gradientDirection=radial;" parent="1" vertex="1">
                    <mxGeometry x="150" y="80" width="20" height="40" as="geometry"/>
                </mxCell>
                <mxCell id="M1pZBGetKFNLrOsSdhf2-65" value="$$=$$" style="text;html=1;align=center;verticalAlign=middle;whiteSpace=wrap;rounded=0;" parent="1" vertex="1">
                    <mxGeometry x="170" y="85" width="20" height="30" as="geometry"/>
                </mxCell>
                <mxCell id="M1pZBGetKFNLrOsSdhf2-60" value="\(v\)" style="rounded=0;whiteSpace=wrap;html=1;strokeWidth=0.5;shadow=0;glass=0;perimeterSpacing=0;gradientDirection=radial;" parent="1" vertex="1">
                    <mxGeometry x="210" y="185" width="20" height="20" as="geometry"/>
                </mxCell>
                <mxCell id="M1pZBGetKFNLrOsSdhf2-61" value="\(\textrm{Solve for}\)" style="text;html=1;align=center;verticalAlign=middle;whiteSpace=wrap;rounded=0;" parent="1" vertex="1">
                    <mxGeometry x="150" y="180" width="60" height="30" as="geometry"/>
                </mxCell>
                <mxCell id="M1pZBGetKFNLrOsSdhf2-71" value="\(\textrm{:}\)" style="text;html=1;align=center;verticalAlign=middle;whiteSpace=wrap;rounded=0;" parent="1" vertex="1">
                    <mxGeometry x="240" y="180" width="12" height="30" as="geometry"/>
                </mxCell>
                <mxCell id="M1pZBGetKFNLrOsSdhf2-78" value="" style="text;html=1;align=center;verticalAlign=middle;whiteSpace=wrap;rounded=0;strokeColor=default;fillColor=default;" parent="1" vertex="1">
                    <mxGeometry x="150" y="210" width="110" height="60" as="geometry"/>
                </mxCell>
                <mxCell id="19" style="edgeStyle=orthogonalEdgeStyle;html=1;exitX=0.5;exitY=1;exitDx=0;exitDy=0;entryX=0.5;entryY=0;entryDx=0;entryDy=0;elbow=vertical;rounded=0;" edge="1" parent="1" source="M1pZBGetKFNLrOsSdhf2-87" target="M1pZBGetKFNLrOsSdhf2-90">
                    <mxGeometry relative="1" as="geometry"/>
                </mxCell>
                <mxCell id="M1pZBGetKFNLrOsSdhf2-87" value="=" style="rounded=0;whiteSpace=wrap;html=1;fillColor=#eeeeee;strokeColor=#36393d;" parent="1" vertex="1">
                    <mxGeometry x="178" y="125" width="25" height="20" as="geometry"/>
                </mxCell>
                <mxCell id="M1pZBGetKFNLrOsSdhf2-109" style="edgeStyle=orthogonalEdgeStyle;rounded=0;orthogonalLoop=1;jettySize=auto;html=1;exitX=0.5;exitY=1;exitDx=0;exitDy=0;entryX=0.5;entryY=0;entryDx=0;entryDy=0;" parent="1" source="M1pZBGetKFNLrOsSdhf2-89" target="M1pZBGetKFNLrOsSdhf2-105" edge="1">
                    <mxGeometry relative="1" as="geometry"/>
                </mxCell>
                <mxCell id="M1pZBGetKFNLrOsSdhf2-89" value="=" style="rounded=0;whiteSpace=wrap;html=1;fillColor=#eeeeee;strokeColor=#36393d;" parent="1" vertex="1">
                    <mxGeometry x="190" y="255" width="25" height="20" as="geometry"/>
                </mxCell>
                <mxCell id="M1pZBGetKFNLrOsSdhf2-90" value="" style="rounded=0;whiteSpace=wrap;html=1;fillColor=#eeeeee;strokeColor=#36393d;" parent="1" vertex="1">
                    <mxGeometry x="190" y="170" width="25" height="10" as="geometry"/>
                </mxCell>
                <mxCell id="M1pZBGetKFNLrOsSdhf2-91" value="\(v\)" style="rounded=0;whiteSpace=wrap;html=1;fillColor=#cce5ff;strokeColor=#36393d;" parent="1" vertex="1">
                    <mxGeometry x="150" y="255" width="25" height="20" as="geometry"/>
                </mxCell>
                <mxCell id="M1pZBGetKFNLrOsSdhf2-93" value="$$v=\sqrt{\mu(\frac{2}{r}-\frac{1}{a})}$$" style="text;html=1;align=center;verticalAlign=middle;whiteSpace=wrap;rounded=0;" parent="1" vertex="1">
                    <mxGeometry x="150" y="210" width="110" height="40" as="geometry"/>
                </mxCell>
                <mxCell id="M1pZBGetKFNLrOsSdhf2-94" value="" style="rounded=0;whiteSpace=wrap;html=1;" parent="1" vertex="1">
                    <mxGeometry x="510" y="370" width="100" height="50" as="geometry"/>
                </mxCell>
                <mxCell id="M1pZBGetKFNLrOsSdhf2-96" value="$$\mu$$" style="rounded=0;whiteSpace=wrap;html=1;strokeWidth=0.25;strokeColor=#CCCCCC;shadow=0;glass=0;perimeterSpacing=0;fillColor=default;gradientColor=#FAFAFA;gradientDirection=radial;" parent="1" vertex="1">
                    <mxGeometry x="520" y="380" width="20" height="20" as="geometry"/>
                </mxCell>
                <mxCell id="M1pZBGetKFNLrOsSdhf2-97" value="$$=$$" style="text;html=1;align=center;verticalAlign=middle;whiteSpace=wrap;rounded=0;" parent="1" vertex="1">
                    <mxGeometry x="540" y="380" width="20" height="20" as="geometry"/>
                </mxCell>
                <mxCell id="M1pZBGetKFNLrOsSdhf2-98" value="$$GM$$" style="rounded=0;whiteSpace=wrap;html=1;strokeWidth=0.25;strokeColor=#CCCCCC;shadow=0;glass=0;perimeterSpacing=0;fillColor=default;gradientColor=#FAFAFA;gradientDirection=radial;" parent="1" vertex="1">
                    <mxGeometry x="560" y="380" width="40" height="20" as="geometry"/>
                </mxCell>
                <mxCell id="M1pZBGetKFNLrOsSdhf2-101" value="=" style="rounded=0;whiteSpace=wrap;html=1;fillColor=#eeeeee;strokeColor=#36393d;" parent="1" vertex="1">
                    <mxGeometry x="547" y="405" width="25" height="20" as="geometry"/>
                </mxCell>
                <mxCell id="M1pZBGetKFNLrOsSdhf2-102" value="\(\mu\)" style="rounded=0;whiteSpace=wrap;html=1;fillColor=#cce5ff;strokeColor=#36393d;" parent="1" vertex="1">
                    <mxGeometry x="510" y="405" width="25" height="20" as="geometry"/>
                </mxCell>
                <mxCell id="M1pZBGetKFNLrOsSdhf2-103" value="" style="rounded=0;whiteSpace=wrap;html=1;gradientColor=none;glass=0;" parent="1" vertex="1">
                    <mxGeometry x="250" y="320" width="170" height="40" as="geometry"/>
                </mxCell>
                <mxCell id="M1pZBGetKFNLrOsSdhf2-104" value="\(\textrm{Substitute } r \textrm{ :}\)" style="text;html=1;align=left;verticalAlign=middle;whiteSpace=wrap;rounded=0;" parent="1" vertex="1">
                    <mxGeometry x="260" y="330" width="120" height="30" as="geometry"/>
                </mxCell>
                <mxCell id="M1pZBGetKFNLrOsSdhf2-105" value="" style="rounded=0;whiteSpace=wrap;html=1;fillColor=#eeeeee;strokeColor=#36393d;" parent="1" vertex="1">
                    <mxGeometry x="260" y="320" width="25" height="10" as="geometry"/>
                </mxCell>
                <mxCell id="M1pZBGetKFNLrOsSdhf2-106" value="" style="rounded=0;whiteSpace=wrap;html=1;fillColor=#cce5ff;strokeColor=#36393d;" parent="1" vertex="1">
                    <mxGeometry x="300" y="320" width="25" height="10" as="geometry"/>
                </mxCell>
                <mxCell id="M1pZBGetKFNLrOsSdhf2-108" value="$$v=\sqrt{\mu\left(\frac{2}{\frac{a(1-e^2)}{1+e\cos{\theta}}}-\frac{1}{a}\right)}$$" style="text;html=1;align=center;verticalAlign=middle;whiteSpace=wrap;rounded=0;" parent="1" vertex="1">
                    <mxGeometry x="250" y="360" width="170" height="70" as="geometry"/>
                </mxCell>
                <mxCell id="M1pZBGetKFNLrOsSdhf2-112" value="=" style="rounded=0;whiteSpace=wrap;html=1;fillColor=#eeeeee;strokeColor=#36393d;" parent="1" vertex="1">
                    <mxGeometry x="310" y="430" width="25" height="20" as="geometry"/>
                </mxCell>
                <mxCell id="M1pZBGetKFNLrOsSdhf2-170" style="edgeStyle=orthogonalEdgeStyle;rounded=0;orthogonalLoop=1;jettySize=auto;html=1;exitX=0.5;exitY=1;exitDx=0;exitDy=0;entryX=0.5;entryY=0;entryDx=0;entryDy=0;" parent="1" source="M1pZBGetKFNLrOsSdhf2-113" target="M1pZBGetKFNLrOsSdhf2-122" edge="1">
                    <mxGeometry relative="1" as="geometry"/>
                </mxCell>
                <mxCell id="M1pZBGetKFNLrOsSdhf2-113" value="\(v\)" style="rounded=0;whiteSpace=wrap;html=1;fillColor=#cce5ff;strokeColor=#36393d;" parent="1" vertex="1">
                    <mxGeometry x="260" y="430" width="25" height="20" as="geometry"/>
                </mxCell>
                <mxCell id="M1pZBGetKFNLrOsSdhf2-119" value="" style="rounded=0;whiteSpace=wrap;html=1;fillColor=#cce5ff;strokeColor=#36393d;opacity=60;" parent="1" vertex="1">
                    <mxGeometry x="330" y="320" width="25" height="10" as="geometry"/>
                </mxCell>
                <mxCell id="M1pZBGetKFNLrOsSdhf2-120" value="" style="rounded=0;whiteSpace=wrap;html=1;gradientColor=none;glass=0;" parent="1" vertex="1">
                    <mxGeometry x="130" y="510" width="250" height="40" as="geometry"/>
                </mxCell>
                <mxCell id="M1pZBGetKFNLrOsSdhf2-121" value="\(\textrm{Minimize } v \textrm{ varying}\)" style="text;html=1;align=left;verticalAlign=middle;whiteSpace=wrap;rounded=0;" parent="1" vertex="1">
                    <mxGeometry x="140" y="520" width="160" height="30" as="geometry"/>
                </mxCell>
                <mxCell id="M1pZBGetKFNLrOsSdhf2-122" value="" style="rounded=0;whiteSpace=wrap;html=1;fillColor=#cce5ff;strokeColor=#36393d;" parent="1" vertex="1">
                    <mxGeometry x="250" y="510" width="25" height="10" as="geometry"/>
                </mxCell>
                <mxCell id="M1pZBGetKFNLrOsSdhf2-123" value="\(\theta\)" style="rounded=0;whiteSpace=wrap;html=1;strokeWidth=0.25;strokeColor=#CCCCCC;shadow=0;glass=0;perimeterSpacing=0;fillColor=default;gradientColor=#FAFAFA;gradientDirection=radial;" parent="1" vertex="1">
                    <mxGeometry x="260" y="525" width="20" height="20" as="geometry"/>
                </mxCell>
                <mxCell id="M1pZBGetKFNLrOsSdhf2-128" value="" style="rounded=0;whiteSpace=wrap;html=1;" parent="1" vertex="1">
                    <mxGeometry x="130" y="550" width="65" height="50" as="geometry"/>
                </mxCell>
                <mxCell id="M1pZBGetKFNLrOsSdhf2-129" value="$$\scriptsize{\textrm{min:}}$$" style="text;html=1;align=center;verticalAlign=middle;whiteSpace=wrap;rounded=0;" parent="1" vertex="1">
                    <mxGeometry x="270" y="550" width="50" height="20" as="geometry"/>
                </mxCell>
                <mxCell id="M1pZBGetKFNLrOsSdhf2-132" value="" style="rounded=0;whiteSpace=wrap;html=1;" parent="1" vertex="1">
                    <mxGeometry x="320" y="210" width="130" height="70" as="geometry"/>
                </mxCell>
                <mxCell id="M1pZBGetKFNLrOsSdhf2-133" value="$$r$$" style="rounded=0;whiteSpace=wrap;html=1;strokeWidth=0.25;strokeColor=#CCCCCC;shadow=0;glass=0;perimeterSpacing=0;fillColor=default;gradientColor=#FAFAFA;gradientDirection=radial;" parent="1" vertex="1">
                    <mxGeometry x="330" y="230" width="20" height="20" as="geometry"/>
                </mxCell>
                <mxCell id="M1pZBGetKFNLrOsSdhf2-134" value="$$=$$" style="text;html=1;align=center;verticalAlign=middle;whiteSpace=wrap;rounded=0;" parent="1" vertex="1">
                    <mxGeometry x="350" y="230" width="20" height="20" as="geometry"/>
                </mxCell>
                <mxCell id="M1pZBGetKFNLrOsSdhf2-135" value="$$\frac{a(1-e^2)}{1+e\cos{\theta}}$$" style="rounded=0;whiteSpace=wrap;html=1;strokeWidth=0.25;strokeColor=#CCCCCC;shadow=0;glass=0;perimeterSpacing=0;fillColor=default;gradientColor=#FAFAFA;gradientDirection=radial;" parent="1" vertex="1">
                    <mxGeometry x="370" y="220" width="70" height="40" as="geometry"/>
                </mxCell>
                <mxCell id="M1pZBGetKFNLrOsSdhf2-140" style="edgeStyle=orthogonalEdgeStyle;rounded=0;orthogonalLoop=1;jettySize=auto;html=1;exitX=0.5;exitY=1;exitDx=0;exitDy=0;entryX=0.5;entryY=0;entryDx=0;entryDy=0;" parent="1" source="M1pZBGetKFNLrOsSdhf2-137" target="M1pZBGetKFNLrOsSdhf2-106" edge="1">
                    <mxGeometry relative="1" as="geometry"/>
                </mxCell>
                <mxCell id="M1pZBGetKFNLrOsSdhf2-137" value="\(r\)" style="rounded=0;whiteSpace=wrap;html=1;fillColor=#cce5ff;strokeColor=#36393d;" parent="1" vertex="1">
                    <mxGeometry x="320" y="265" width="25" height="20" as="geometry"/>
                </mxCell>
                <mxCell id="M1pZBGetKFNLrOsSdhf2-138" value="=" style="rounded=0;whiteSpace=wrap;html=1;fillColor=#eeeeee;strokeColor=#36393d;" parent="1" vertex="1">
                    <mxGeometry x="377" y="265" width="25" height="20" as="geometry"/>
                </mxCell>
                <mxCell id="M1pZBGetKFNLrOsSdhf2-142" value="" style="rounded=0;whiteSpace=wrap;html=1;" parent="1" vertex="1">
                    <mxGeometry x="570" y="110" width="100" height="50" as="geometry"/>
                </mxCell>
                <mxCell id="M1pZBGetKFNLrOsSdhf2-143" value="$$r$$" style="rounded=0;whiteSpace=wrap;html=1;strokeWidth=0.25;strokeColor=#CCCCCC;shadow=0;glass=0;perimeterSpacing=0;fillColor=default;gradientColor=#FAFAFA;gradientDirection=radial;" parent="1" vertex="1">
                    <mxGeometry x="580" y="120" width="20" height="20" as="geometry"/>
                </mxCell>
                <mxCell id="M1pZBGetKFNLrOsSdhf2-145" value="$$\in\mathbb{R}$$" style="rounded=0;whiteSpace=wrap;html=1;strokeWidth=0.5;strokeColor=#000000;shadow=0;glass=0;perimeterSpacing=0;fillColor=default;gradientColor=#FAFAFA;gradientDirection=radial;" parent="1" vertex="1">
                    <mxGeometry x="610" y="120" width="40" height="20" as="geometry"/>
                </mxCell>
                <mxCell id="M1pZBGetKFNLrOsSdhf2-146" value="$$\in$$" style="rounded=0;whiteSpace=wrap;html=1;fillColor=#ffcc99;strokeColor=#36393d;" parent="1" vertex="1">
                    <mxGeometry x="606" y="145" width="25" height="20" as="geometry"/>
                </mxCell>
                <mxCell id="M1pZBGetKFNLrOsSdhf2-148" value="" style="rounded=0;whiteSpace=wrap;html=1;fillColor=#ffcc99;strokeColor=#36393d;" parent="1" vertex="1">
                    <mxGeometry x="230" y="170" width="25" height="10" as="geometry"/>
                </mxCell>
                <mxCell id="M1pZBGetKFNLrOsSdhf2-150" value="" style="rounded=0;whiteSpace=wrap;html=1;strokeWidth=0.25;" parent="1" vertex="1">
                    <mxGeometry x="650" y="120" width="10" height="20" as="geometry"/>
                </mxCell>
                <mxCell id="M1pZBGetKFNLrOsSdhf2-151" value="" style="triangle;whiteSpace=wrap;html=1;rotation=90;fillColor=#000000;strokeColor=none;" parent="1" vertex="1">
                    <mxGeometry x="652.5" y="128" width="5" height="5" as="geometry"/>
                </mxCell>
                <mxCell id="M1pZBGetKFNLrOsSdhf2-153" value="" style="rounded=0;whiteSpace=wrap;html=1;" parent="1" vertex="1">
                    <mxGeometry x="250" y="80" width="130" height="50" as="geometry"/>
                </mxCell>
                <mxCell id="M1pZBGetKFNLrOsSdhf2-154" value="$$r, \mu, a, v$$" style="rounded=0;whiteSpace=wrap;html=1;strokeWidth=0.25;strokeColor=#CCCCCC;shadow=0;glass=0;perimeterSpacing=0;fillColor=default;gradientColor=#FAFAFA;gradientDirection=radial;" parent="1" vertex="1">
                    <mxGeometry x="260" y="90" width="50" height="20" as="geometry"/>
                </mxCell>
                <mxCell id="M1pZBGetKFNLrOsSdhf2-155" value="$$\in\mathbb{R}^+&lt;br&gt;$$" style="rounded=0;whiteSpace=wrap;html=1;strokeWidth=0.5;strokeColor=#000000;shadow=0;glass=0;perimeterSpacing=0;fillColor=default;gradientColor=#FAFAFA;gradientDirection=radial;" parent="1" vertex="1">
                    <mxGeometry x="320" y="90" width="40" height="20" as="geometry"/>
                </mxCell>
                <mxCell id="27" style="edgeStyle=orthogonalEdgeStyle;rounded=0;sketch=0;html=1;exitX=0.5;exitY=1;exitDx=0;exitDy=0;entryX=0.5;entryY=0;entryDx=0;entryDy=0;strokeWidth=0.5;elbow=vertical;" edge="1" parent="1" source="M1pZBGetKFNLrOsSdhf2-156" target="M1pZBGetKFNLrOsSdhf2-148">
                    <mxGeometry relative="1" as="geometry"/>
                </mxCell>
                <mxCell id="M1pZBGetKFNLrOsSdhf2-156" value="$$\in$$" style="rounded=0;whiteSpace=wrap;html=1;fillColor=#ffcc99;strokeColor=#36393d;" parent="1" vertex="1">
                    <mxGeometry x="300" y="115" width="25" height="20" as="geometry"/>
                </mxCell>
                <mxCell id="M1pZBGetKFNLrOsSdhf2-157" value="" style="rounded=0;whiteSpace=wrap;html=1;strokeWidth=0.5;" parent="1" vertex="1">
                    <mxGeometry x="360" y="90" width="10" height="20" as="geometry"/>
                </mxCell>
                <mxCell id="M1pZBGetKFNLrOsSdhf2-158" value="" style="triangle;whiteSpace=wrap;html=1;rotation=90;fillColor=#000000;strokeColor=none;" parent="1" vertex="1">
                    <mxGeometry x="362.5" y="98" width="5" height="5" as="geometry"/>
                </mxCell>
                <mxCell id="M1pZBGetKFNLrOsSdhf2-165" value="" style="rounded=0;whiteSpace=wrap;html=1;strokeColor=#EA6B66;" parent="1" vertex="1">
                    <mxGeometry x="560" y="240" width="101" height="70" as="geometry"/>
                </mxCell>
                <mxCell id="M1pZBGetKFNLrOsSdhf2-166" value="$$\frac{2}{}-\frac{1}{a}$$" style="rounded=0;whiteSpace=wrap;html=1;strokeWidth=0.25;strokeColor=#CCCCCC;shadow=0;glass=0;perimeterSpacing=0;fillColor=default;gradientColor=#FAFAFA;gradientDirection=radial;" parent="1" vertex="1">
                    <mxGeometry x="609" y="250" width="44" height="40" as="geometry"/>
                </mxCell>
                <mxCell id="M1pZBGetKFNLrOsSdhf2-167" value="$$\frac{v^2}{\mu}$$" style="rounded=0;whiteSpace=wrap;html=1;strokeWidth=0.25;strokeColor=#CCCCCC;shadow=0;glass=0;perimeterSpacing=0;fillColor=default;gradientColor=#FAFAFA;gradientDirection=radial;" parent="1" vertex="1">
                    <mxGeometry x="570" y="250" width="20" height="40" as="geometry"/>
                </mxCell>
                <mxCell id="M1pZBGetKFNLrOsSdhf2-168" value="$$=$$" style="text;html=1;align=center;verticalAlign=middle;whiteSpace=wrap;rounded=0;" parent="1" vertex="1">
                    <mxGeometry x="590" y="255" width="20" height="30" as="geometry"/>
                </mxCell>
                <mxCell id="M1pZBGetKFNLrOsSdhf2-169" value="=" style="rounded=0;whiteSpace=wrap;html=1;fillColor=#eeeeee;strokeColor=#EA6B66;" parent="1" vertex="1">
                    <mxGeometry x="598" y="295" width="25" height="20" as="geometry"/>
                </mxCell>
                <mxCell id="M1pZBGetKFNLrOsSdhf2-171" value="\(\textrm{:}\)" style="text;html=1;align=center;verticalAlign=middle;whiteSpace=wrap;rounded=0;" parent="1" vertex="1">
                    <mxGeometry x="280" y="520" width="10" height="30" as="geometry"/>
                </mxCell>
                <mxCell id="M1pZBGetKFNLrOsSdhf2-176" value="$$\scriptsize{\textrm{argmin:}}$$" style="text;html=1;align=center;verticalAlign=middle;whiteSpace=wrap;rounded=0;" parent="1" vertex="1">
                    <mxGeometry x="140" y="550" width="50" height="20" as="geometry"/>
                </mxCell>
                <mxCell id="M1pZBGetKFNLrOsSdhf2-177" value="$$\theta=\pi$$" style="text;html=1;align=center;verticalAlign=middle;whiteSpace=wrap;rounded=0;" parent="1" vertex="1">
                    <mxGeometry x="135" y="570" width="55" height="20" as="geometry"/>
                </mxCell>
                <mxCell id="M1pZBGetKFNLrOsSdhf2-178" value="\(v\)" style="rounded=0;whiteSpace=wrap;html=1;fillColor=#cce5ff;strokeColor=#36393d;" parent="1" vertex="1">
                    <mxGeometry x="135" y="590" width="25" height="20" as="geometry"/>
                </mxCell>
                <mxCell id="M1pZBGetKFNLrOsSdhf2-179" value="=" style="rounded=0;whiteSpace=wrap;html=1;fillColor=#eeeeee;strokeColor=#36393d;" parent="1" vertex="1">
                    <mxGeometry x="165" y="590" width="25" height="20" as="geometry"/>
                </mxCell>
                <mxCell id="M1pZBGetKFNLrOsSdhf2-183" value="$$v=\sqrt{\mu \left(\frac{2 \cdot \left(1 - e\right)}{a \left(1 - e^{2}\right)} - \frac{1}{a}\right)}$$" style="text;html=1;align=center;verticalAlign=middle;whiteSpace=wrap;rounded=0;" parent="1" vertex="1">
                    <mxGeometry x="200" y="570" width="185" height="60" as="geometry"/>
                </mxCell>
                <mxCell id="M1pZBGetKFNLrOsSdhf2-185" value="\(v\)" style="rounded=0;whiteSpace=wrap;html=1;fillColor=#cce5ff;strokeColor=#36393d;" parent="1" vertex="1">
                    <mxGeometry x="200" y="630" width="25" height="20" as="geometry"/>
                </mxCell>
                <mxCell id="M1pZBGetKFNLrOsSdhf2-186" value="=" style="rounded=0;whiteSpace=wrap;html=1;fillColor=#eeeeee;strokeColor=#36393d;" parent="1" vertex="1">
                    <mxGeometry x="280" y="630" width="25" height="20" as="geometry"/>
                </mxCell>
                <mxCell id="M1pZBGetKFNLrOsSdhf2-152" value="&lt;font style=&quot;font-size: 10px;&quot; color=&quot;#cccccc&quot;&gt;!&lt;/font&gt;" style="ellipse;whiteSpace=wrap;html=1;strokeColor=#CCCCCC;" parent="1" vertex="1">
                    <mxGeometry x="366" y="116" width="10" height="10" as="geometry"/>
                </mxCell>
                <mxCell id="3" value="" style="rounded=0;whiteSpace=wrap;html=1;strokeWidth=0.5;" vertex="1" parent="1">
                    <mxGeometry x="230" y="185" width="10" height="20" as="geometry"/>
                </mxCell>
                <mxCell id="4" value="" style="triangle;whiteSpace=wrap;html=1;rotation=90;fillColor=#000000;strokeColor=none;" vertex="1" parent="1">
                    <mxGeometry x="232.5" y="193" width="5" height="5" as="geometry"/>
                </mxCell>
                <mxCell id="6" value="" style="rounded=0;whiteSpace=wrap;html=1;gradientColor=none;glass=0;" vertex="1" parent="1">
                    <mxGeometry x="450" y="570" width="170" height="80" as="geometry"/>
                </mxCell>
                <mxCell id="7" value="" style="rounded=0;whiteSpace=wrap;html=1;gradientColor=none;glass=0;" vertex="1" parent="1">
                    <mxGeometry x="450" y="530" width="170" height="40" as="geometry"/>
                </mxCell>
                <mxCell id="8" value="\(\textrm{Differentiate w.r.t. } r \textrm{ :}\)" style="text;html=1;align=left;verticalAlign=middle;whiteSpace=wrap;rounded=0;" vertex="1" parent="1">
                    <mxGeometry x="460" y="540" width="120" height="30" as="geometry"/>
                </mxCell>
                <mxCell id="9" value="" style="rounded=0;whiteSpace=wrap;html=1;fillColor=#eeeeee;strokeColor=#000000;" vertex="1" parent="1">
                    <mxGeometry x="460" y="530" width="25" height="10" as="geometry"/>
                </mxCell>
                <mxCell id="10" value="" style="rounded=0;whiteSpace=wrap;html=1;fillColor=#CCE5FF;strokeColor=#36393d;" vertex="1" parent="1">
                    <mxGeometry x="500" y="530" width="25" height="10" as="geometry"/>
                </mxCell>
                <mxCell id="11" value="$$v=\sqrt{\mu\left(\frac{2}{\frac{a(1-e^2)}{1+e\cos{\theta}}}-\frac{1}{a}\right)}$$" style="text;html=1;align=center;verticalAlign=middle;whiteSpace=wrap;rounded=0;" vertex="1" parent="1">
                    <mxGeometry x="450" y="570" width="170" height="70" as="geometry"/>
                </mxCell>
                <mxCell id="12" value="=" style="rounded=0;whiteSpace=wrap;html=1;fillColor=#eeeeee;strokeColor=#36393d;" vertex="1" parent="1">
                    <mxGeometry x="510" y="640" width="25" height="20" as="geometry"/>
                </mxCell>
                <mxCell id="13" value="\(v\)" style="rounded=0;whiteSpace=wrap;html=1;fillColor=#cce5ff;strokeColor=#36393d;" vertex="1" parent="1">
                    <mxGeometry x="450" y="640" width="25" height="20" as="geometry"/>
                </mxCell>
                <mxCell id="14" value="" style="rounded=0;whiteSpace=wrap;html=1;fillColor=#cce5ff;strokeColor=#36393d;opacity=60;" vertex="1" parent="1">
                    <mxGeometry x="530" y="530" width="25" height="10" as="geometry"/>
                </mxCell>
                <mxCell id="24" value="" style="verticalLabelPosition=bottom;verticalAlign=top;html=1;shape=mxgraph.basic.orthogonal_triangle;strokeColor=none;strokeWidth=0.5;fillColor=#CCE5FF;gradientColor=none;rotation=-90;" vertex="1" parent="1">
                    <mxGeometry x="467.55" y="522.88" width="9.09" height="24.36" as="geometry"/>
                </mxCell>
                <mxCell id="30" value="" style="rounded=0;whiteSpace=wrap;html=1;" vertex="1" parent="1">
                    <mxGeometry x="440" y="120" width="100" height="50" as="geometry"/>
                </mxCell>
                <mxCell id="31" value="$$r$$" style="rounded=0;whiteSpace=wrap;html=1;strokeWidth=0.25;strokeColor=#CCCCCC;shadow=0;glass=0;perimeterSpacing=0;fillColor=default;gradientColor=#FAFAFA;gradientDirection=radial;" vertex="1" parent="1">
                    <mxGeometry x="450" y="130" width="20" height="20" as="geometry"/>
                </mxCell>
                <mxCell id="32" value="$$\in\mathbb{R}$$" style="rounded=0;whiteSpace=wrap;html=1;strokeWidth=0.5;strokeColor=#000000;shadow=0;glass=0;perimeterSpacing=0;fillColor=default;gradientColor=#FAFAFA;gradientDirection=radial;" vertex="1" parent="1">
                    <mxGeometry x="480" y="130" width="40" height="20" as="geometry"/>
                </mxCell>
                <mxCell id="33" value="$$\in$$" style="rounded=0;whiteSpace=wrap;html=1;fillColor=#ffcc99;strokeColor=#36393d;" vertex="1" parent="1">
                    <mxGeometry x="476" y="155" width="25" height="20" as="geometry"/>
                </mxCell>
                <mxCell id="34" value="" style="rounded=0;whiteSpace=wrap;html=1;strokeWidth=0.25;" vertex="1" parent="1">
                    <mxGeometry x="520" y="130" width="10" height="20" as="geometry"/>
                </mxCell>
                <mxCell id="35" value="" style="triangle;whiteSpace=wrap;html=1;rotation=90;fillColor=#000000;strokeColor=none;" vertex="1" parent="1">
                    <mxGeometry x="522.5" y="138" width="5" height="5" as="geometry"/>
                </mxCell>
            </root>
        </mxGraphModel>
    </diagram>
</mxfile>